<svg width="16" height="16" viewBox="0 0 16 16" fill="none" xmlns="http://www.w3.org/2000/svg">
<g clip-path="url(#clip0_2995_23183)">
<path d="M7.9999 2.74805L7.2829 2.01105C5.5999 0.281049 2.51389 0.878049 1.39989 3.05305C0.876895 4.07605 0.758895 5.55305 1.71389 7.43805C2.63389 9.25305 4.5479 11.427 7.9999 13.795C11.4519 11.427 13.3649 9.25305 14.2859 7.43805C15.2409 5.55205 15.1239 4.07605 14.5999 3.05305C13.4859 0.878049 10.3999 0.280049 8.7169 2.01005L7.9999 2.74805ZM7.9999 15C-7.33311 4.86805 3.27889 -3.03995 7.82389 1.14305C7.88389 1.19805 7.9429 1.25505 7.9999 1.31405C8.05632 1.2551 8.11503 1.19839 8.17589 1.14405C12.7199 -3.04195 23.3329 4.86705 7.9999 15Z" fill="#737373"/>
<path d="M10.1727 27V17.2H12.4407V25.152H17.3547V27H10.1727ZM22.2109 27.112C21.4083 27.112 20.6943 26.944 20.0689 26.608C19.4529 26.272 18.9629 25.8147 18.5989 25.236C18.2443 24.648 18.0669 23.9807 18.0669 23.234C18.0669 22.478 18.2443 21.8107 18.5989 21.232C18.9629 20.644 19.4529 20.1867 20.0689 19.86C20.6943 19.524 21.4083 19.356 22.2109 19.356C23.0043 19.356 23.7136 19.524 24.3389 19.86C24.9643 20.1867 25.4543 20.6393 25.8089 21.218C26.1636 21.7967 26.3409 22.4687 26.3409 23.234C26.3409 23.9807 26.1636 24.648 25.8089 25.236C25.4543 25.8147 24.9643 26.272 24.3389 26.608C23.7136 26.944 23.0043 27.112 22.2109 27.112ZM22.2109 25.32C22.5749 25.32 22.9016 25.236 23.1909 25.068C23.4803 24.9 23.7089 24.662 23.8769 24.354C24.0449 24.0367 24.1289 23.6633 24.1289 23.234C24.1289 22.7953 24.0449 22.422 23.8769 22.114C23.7089 21.806 23.4803 21.568 23.1909 21.4C22.9016 21.232 22.5749 21.148 22.2109 21.148C21.8469 21.148 21.5203 21.232 21.2309 21.4C20.9416 21.568 20.7083 21.806 20.5309 22.114C20.3629 22.422 20.2789 22.7953 20.2789 23.234C20.2789 23.6633 20.3629 24.0367 20.5309 24.354C20.7083 24.662 20.9416 24.9 21.2309 25.068C21.5203 25.236 21.8469 25.32 22.2109 25.32ZM31.5428 29.828C30.8334 29.828 30.1474 29.7393 29.4848 29.562C28.8314 29.394 28.2854 29.1373 27.8468 28.792L28.7148 27.224C29.0321 27.4853 29.4334 27.6907 29.9188 27.84C30.4134 27.9987 30.8988 28.078 31.3748 28.078C32.1494 28.078 32.7094 27.9053 33.0548 27.56C33.4094 27.2147 33.5868 26.7013 33.5868 26.02V24.886L33.7268 22.996L33.6988 21.092V19.468H35.7708V25.74C35.7708 27.14 35.4068 28.1713 34.6788 28.834C33.9508 29.4967 32.9054 29.828 31.5428 29.828ZM31.2068 26.636C30.5068 26.636 29.8721 26.4867 29.3028 26.188C28.7428 25.88 28.2901 25.4553 27.9448 24.914C27.6088 24.3633 27.4408 23.724 27.4408 22.996C27.4408 22.2587 27.6088 21.6193 27.9448 21.078C28.2901 20.5273 28.7428 20.1027 29.3028 19.804C29.8721 19.5053 30.5068 19.356 31.2068 19.356C31.8414 19.356 32.4014 19.4867 32.8868 19.748C33.3721 20 33.7501 20.3967 34.0208 20.938C34.2914 21.47 34.4268 22.156 34.4268 22.996C34.4268 23.8267 34.2914 24.5127 34.0208 25.054C33.7501 25.586 33.3721 25.9827 32.8868 26.244C32.4014 26.5053 31.8414 26.636 31.2068 26.636ZM31.6408 24.844C32.0234 24.844 32.3641 24.7693 32.6628 24.62C32.9614 24.4613 33.1948 24.242 33.3628 23.962C33.5308 23.682 33.6148 23.36 33.6148 22.996C33.6148 22.6227 33.5308 22.3007 33.3628 22.03C33.1948 21.75 32.9614 21.5353 32.6628 21.386C32.3641 21.2273 32.0234 21.148 31.6408 21.148C31.2581 21.148 30.9174 21.2273 30.6188 21.386C30.3201 21.5353 30.0821 21.75 29.9048 22.03C29.7368 22.3007 29.6528 22.6227 29.6528 22.996C29.6528 23.36 29.7368 23.682 29.9048 23.962C30.0821 24.242 30.3201 24.4613 30.6188 24.62C30.9174 24.7693 31.2581 24.844 31.6408 24.844ZM38.0035 27V19.468H40.1875V27H38.0035ZM39.0955 18.418C38.6942 18.418 38.3675 18.3013 38.1155 18.068C37.8635 17.8347 37.7375 17.5453 37.7375 17.2C37.7375 16.8547 37.8635 16.5653 38.1155 16.332C38.3675 16.0987 38.6942 15.982 39.0955 15.982C39.4968 15.982 39.8235 16.094 40.0755 16.318C40.3275 16.5327 40.4535 16.8127 40.4535 17.158C40.4535 17.522 40.3275 17.8253 40.0755 18.068C39.8328 18.3013 39.5062 18.418 39.0955 18.418ZM46.9924 19.356C47.5898 19.356 48.1218 19.4773 48.5884 19.72C49.0644 19.9533 49.4378 20.3173 49.7084 20.812C49.9791 21.2973 50.1144 21.9227 50.1144 22.688V27H47.9304V23.024C47.9304 22.4173 47.7951 21.9693 47.5244 21.68C47.2631 21.3907 46.8898 21.246 46.4044 21.246C46.0591 21.246 45.7464 21.3207 45.4664 21.47C45.1958 21.61 44.9811 21.8293 44.8224 22.128C44.6731 22.4267 44.5984 22.8093 44.5984 23.276V27H42.4144V19.468H44.5004V21.554L44.1084 20.924C44.3791 20.42 44.7664 20.0327 45.2704 19.762C45.7744 19.4913 46.3484 19.356 46.9924 19.356ZM54.989 28.4L59.609 15.212H61.555L56.935 28.4H54.989ZM66.4602 27V17.2H70.7022C71.5796 17.2 72.3356 17.3447 72.9702 17.634C73.6049 17.914 74.0949 18.32 74.4402 18.852C74.7856 19.384 74.9582 20.0187 74.9582 20.756C74.9582 21.484 74.7856 22.114 74.4402 22.646C74.0949 23.1687 73.6049 23.57 72.9702 23.85C72.3356 24.13 71.5796 24.27 70.7022 24.27H67.7202L68.7282 23.276V27H66.4602ZM72.6902 27L70.2402 23.444H72.6622L75.1402 27H72.6902ZM68.7282 23.528L67.7202 22.464H70.5762C71.2762 22.464 71.7989 22.3147 72.1442 22.016C72.4896 21.708 72.6622 21.288 72.6622 20.756C72.6622 20.2147 72.4896 19.7947 72.1442 19.496C71.7989 19.1973 71.2762 19.048 70.5762 19.048H67.7202L68.7282 17.97V23.528ZM80.5392 27.112C79.6805 27.112 78.9245 26.944 78.2712 26.608C77.6272 26.272 77.1278 25.8147 76.7732 25.236C76.4185 24.648 76.2412 23.9807 76.2412 23.234C76.2412 22.478 76.4138 21.8107 76.7592 21.232C77.1138 20.644 77.5945 20.1867 78.2012 19.86C78.8078 19.524 79.4938 19.356 80.2592 19.356C80.9965 19.356 81.6592 19.5147 82.2472 19.832C82.8445 20.14 83.3158 20.588 83.6612 21.176C84.0065 21.7547 84.1792 22.45 84.1792 23.262C84.1792 23.346 84.1745 23.444 84.1652 23.556C84.1558 23.6587 84.1465 23.7567 84.1372 23.85H78.0192V22.576H82.9892L82.1492 22.954C82.1492 22.562 82.0698 22.2213 81.9112 21.932C81.7525 21.6427 81.5332 21.4187 81.2532 21.26C80.9732 21.092 80.6465 21.008 80.2732 21.008C79.8998 21.008 79.5685 21.092 79.2792 21.26C78.9992 21.4187 78.7798 21.6473 78.6212 21.946C78.4625 22.2353 78.3832 22.5807 78.3832 22.982V23.318C78.3832 23.7287 78.4718 24.0927 78.6492 24.41C78.8358 24.718 79.0925 24.956 79.4192 25.124C79.7552 25.2827 80.1472 25.362 80.5952 25.362C80.9965 25.362 81.3465 25.3013 81.6452 25.18C81.9532 25.0587 82.2332 24.8767 82.4852 24.634L83.6472 25.894C83.3018 26.286 82.8678 26.5893 82.3452 26.804C81.8225 27.0093 81.2205 27.112 80.5392 27.112ZM89.3752 29.828C88.6659 29.828 87.9799 29.7393 87.3172 29.562C86.6639 29.394 86.1179 29.1373 85.6792 28.792L86.5472 27.224C86.8645 27.4853 87.2659 27.6907 87.7512 27.84C88.2459 27.9987 88.7312 28.078 89.2072 28.078C89.9819 28.078 90.5419 27.9053 90.8872 27.56C91.2419 27.2147 91.4192 26.7013 91.4192 26.02V24.886L91.5592 22.996L91.5312 21.092V19.468H93.6032V25.74C93.6032 27.14 93.2392 28.1713 92.5112 28.834C91.7832 29.4967 90.7379 29.828 89.3752 29.828ZM89.0392 26.636C88.3392 26.636 87.7045 26.4867 87.1352 26.188C86.5752 25.88 86.1225 25.4553 85.7772 24.914C85.4412 24.3633 85.2732 23.724 85.2732 22.996C85.2732 22.2587 85.4412 21.6193 85.7772 21.078C86.1225 20.5273 86.5752 20.1027 87.1352 19.804C87.7045 19.5053 88.3392 19.356 89.0392 19.356C89.6739 19.356 90.2339 19.4867 90.7192 19.748C91.2045 20 91.5825 20.3967 91.8532 20.938C92.1239 21.47 92.2592 22.156 92.2592 22.996C92.2592 23.8267 92.1239 24.5127 91.8532 25.054C91.5825 25.586 91.2045 25.9827 90.7192 26.244C90.2339 26.5053 89.6739 26.636 89.0392 26.636ZM89.4732 24.844C89.8559 24.844 90.1965 24.7693 90.4952 24.62C90.7939 24.4613 91.0272 24.242 91.1952 23.962C91.3632 23.682 91.4472 23.36 91.4472 22.996C91.4472 22.6227 91.3632 22.3007 91.1952 22.03C91.0272 21.75 90.7939 21.5353 90.4952 21.386C90.1965 21.2273 89.8559 21.148 89.4732 21.148C89.0905 21.148 88.7499 21.2273 88.4512 21.386C88.1525 21.5353 87.9145 21.75 87.7372 22.03C87.5692 22.3007 87.4852 22.6227 87.4852 22.996C87.4852 23.36 87.5692 23.682 87.7372 23.962C87.9145 24.242 88.1525 24.4613 88.4512 24.62C88.7499 24.7693 89.0905 24.844 89.4732 24.844ZM95.8359 27V19.468H98.0199V27H95.8359ZM96.9279 18.418C96.5266 18.418 96.1999 18.3013 95.9479 18.068C95.6959 17.8347 95.5699 17.5453 95.5699 17.2C95.5699 16.8547 95.6959 16.5653 95.9479 16.332C96.1999 16.0987 96.5266 15.982 96.9279 15.982C97.3293 15.982 97.6559 16.094 97.9079 16.318C98.1599 16.5327 98.2859 16.8127 98.2859 17.158C98.2859 17.522 98.1599 17.8253 97.9079 18.068C97.6653 18.3013 97.3386 18.418 96.9279 18.418ZM102.781 27.112C102.137 27.112 101.516 27.0373 100.919 26.888C100.331 26.7293 99.8642 26.5333 99.5189 26.3L100.247 24.732C100.592 24.9467 100.998 25.124 101.465 25.264C101.941 25.3947 102.408 25.46 102.865 25.46C103.369 25.46 103.724 25.3993 103.929 25.278C104.144 25.1567 104.251 24.9887 104.251 24.774C104.251 24.5967 104.167 24.466 103.999 24.382C103.84 24.2887 103.626 24.2187 103.355 24.172C103.084 24.1253 102.786 24.0787 102.459 24.032C102.142 23.9853 101.82 23.9247 101.493 23.85C101.166 23.766 100.868 23.6447 100.597 23.486C100.326 23.3273 100.107 23.1127 99.9389 22.842C99.7802 22.5713 99.7009 22.2213 99.7009 21.792C99.7009 21.316 99.8362 20.896 100.107 20.532C100.387 20.168 100.788 19.8833 101.311 19.678C101.834 19.4633 102.459 19.356 103.187 19.356C103.7 19.356 104.223 19.412 104.755 19.524C105.287 19.636 105.73 19.7993 106.085 20.014L105.357 21.568C104.993 21.3533 104.624 21.2087 104.251 21.134C103.887 21.05 103.532 21.008 103.187 21.008C102.702 21.008 102.347 21.0733 102.123 21.204C101.899 21.3347 101.787 21.5027 101.787 21.708C101.787 21.8947 101.866 22.0347 102.025 22.128C102.193 22.2213 102.412 22.296 102.683 22.352C102.954 22.408 103.248 22.4593 103.565 22.506C103.892 22.5433 104.218 22.604 104.545 22.688C104.872 22.772 105.166 22.8933 105.427 23.052C105.698 23.2013 105.917 23.4113 106.085 23.682C106.253 23.9433 106.337 24.2887 106.337 24.718C106.337 25.1847 106.197 25.6 105.917 25.964C105.637 26.3187 105.231 26.5987 104.699 26.804C104.176 27.0093 103.537 27.112 102.781 27.112ZM110.964 27.112C110.078 27.112 109.387 26.888 108.892 26.44C108.398 25.9827 108.15 25.306 108.15 24.41V17.802H110.334V24.382C110.334 24.6993 110.418 24.9467 110.586 25.124C110.754 25.292 110.983 25.376 111.272 25.376C111.618 25.376 111.912 25.2827 112.154 25.096L112.742 26.636C112.518 26.7947 112.248 26.916 111.93 27C111.622 27.0747 111.3 27.112 110.964 27.112ZM106.988 21.316V19.636H112.21V21.316H106.988ZM117.674 27.112C116.815 27.112 116.059 26.944 115.406 26.608C114.762 26.272 114.263 25.8147 113.908 25.236C113.553 24.648 113.376 23.9807 113.376 23.234C113.376 22.478 113.549 21.8107 113.894 21.232C114.249 20.644 114.729 20.1867 115.336 19.86C115.943 19.524 116.629 19.356 117.394 19.356C118.131 19.356 118.794 19.5147 119.382 19.832C119.979 20.14 120.451 20.588 120.796 21.176C121.141 21.7547 121.314 22.45 121.314 23.262C121.314 23.346 121.309 23.444 121.3 23.556C121.291 23.6587 121.281 23.7567 121.272 23.85H115.154V22.576H120.124L119.284 22.954C119.284 22.562 119.205 22.2213 119.046 21.932C118.887 21.6427 118.668 21.4187 118.388 21.26C118.108 21.092 117.781 21.008 117.408 21.008C117.035 21.008 116.703 21.092 116.414 21.26C116.134 21.4187 115.915 21.6473 115.756 21.946C115.597 22.2353 115.518 22.5807 115.518 22.982V23.318C115.518 23.7287 115.607 24.0927 115.784 24.41C115.971 24.718 116.227 24.956 116.554 25.124C116.89 25.2827 117.282 25.362 117.73 25.362C118.131 25.362 118.481 25.3013 118.78 25.18C119.088 25.0587 119.368 24.8767 119.62 24.634L120.782 25.894C120.437 26.286 120.003 26.5893 119.48 26.804C118.957 27.0093 118.355 27.112 117.674 27.112ZM122.968 27V19.468H125.054V21.596L124.76 20.98C124.984 20.448 125.343 20.0467 125.838 19.776C126.333 19.496 126.935 19.356 127.644 19.356V21.372C127.551 21.3627 127.467 21.358 127.392 21.358C127.317 21.3487 127.238 21.344 127.154 21.344C126.557 21.344 126.071 21.5167 125.698 21.862C125.334 22.198 125.152 22.7253 125.152 23.444V27H122.968Z" fill="#737373"/>
</g>
<defs>
<clipPath id="clip0_2995_23183">
<rect width="16" height="16" fill="white"/>
</clipPath>
</defs>
</svg>
